<svg width="1395" height="987" viewBox="0 0 1395 987" fill="none" xmlns="http://www.w3.org/2000/svg">
<g clip-path="url(#clip0_101_57)">
<path d="M1385.77 985.31H0V981.931H1385.77C1386.63 981.931 1387.33 982.688 1387.33 983.621C1387.33 984.554 1386.63 985.31 1385.77 985.31Z" fill="#3F3D56"/>
<path d="M342.09 981.931H255.27C242.294 981.931 231.737 970.514 231.737 956.479V680.883C231.737 666.848 242.294 655.43 255.27 655.43H342.09C355.066 655.43 365.623 666.848 365.623 680.883V956.479C365.623 970.514 355.066 981.931 342.09 981.931Z" fill="#3F3D56"/>
<path d="M1192.66 982.471H1105.84C1092.87 982.471 1082.31 971.054 1082.31 957.019V681.423C1082.31 667.388 1092.87 655.97 1105.84 655.97H1192.66C1205.64 655.97 1216.2 667.388 1216.2 681.423V957.019C1216.2 971.054 1205.64 982.471 1192.66 982.471Z" fill="#3F3D56"/>
<path d="M362.672 297.129L234.824 493.506C219.397 517.203 213.28 546.545 217.814 575.109L256.67 819.932C265.015 872.517 307.175 910.953 356.508 910.953H1107.78C1161.33 910.953 1205.62 865.891 1208.89 808.094L1223.89 543.219C1225.67 511.686 1214.78 480.855 1194.02 458.638L1014.69 266.791C995.001 245.732 968.204 234.306 940.528 235.169L442.582 250.691C410.667 251.686 381.053 268.896 362.672 297.129Z" fill="#8EE8AC"/>
<path d="M382.146 331.991L357.702 381.422C342.125 412.921 364.836 450.119 399.392 449.704L1011.39 442.352C1048.98 441.9 1070.15 398.079 1047.67 367.258L1009.14 314.429C1000.25 302.247 986.158 295.189 971.301 295.48L422.283 306.229C405.26 306.562 389.821 316.472 382.146 331.991Z" fill="white"/>
<path d="M1148.22 435.144C1144.27 435.144 1140.42 433.558 1137.46 430.664C1134.11 427.384 1132.19 422.698 1132.19 417.81L1132.19 406.944L1134.2 356.868C1134.58 347.569 1141.61 340.286 1150.22 340.286H1213.93C1219.86 340.286 1225.28 343.801 1228.07 349.463L1235.66 364.856C1238.06 369.725 1238.2 375.381 1236.03 380.374C1233.87 385.371 1229.76 388.875 1224.77 389.99L1176.74 400.739C1171.77 401.848 1167.86 405.827 1166.52 411.123L1163.68 422.371C1161.95 429.25 1156.37 434.349 1149.81 435.058C1149.28 435.117 1148.75 435.144 1148.22 435.144Z" fill="#8EE8AC"/>
<path d="M287.619 435.058C281.059 434.349 275.484 429.25 273.748 422.371L270.911 411.123C269.577 405.827 265.662 401.848 260.696 400.739L212.664 389.99C207.67 388.875 203.563 385.371 201.398 380.375C199.233 375.381 199.368 369.725 201.767 364.856L209.358 349.463C212.152 343.801 217.571 340.286 223.504 340.286H287.214C295.82 340.286 302.854 347.569 303.228 356.869L305.242 406.944L305.243 417.81C305.243 422.698 303.32 427.384 299.97 430.664C297.012 433.559 293.162 435.145 289.207 435.145C288.679 435.145 288.148 435.117 287.619 435.058Z" fill="#8EE8AC"/>
<path d="M438.316 592.527C443.89 555.38 420.564 520.381 386.217 514.353C351.869 508.325 319.506 533.551 313.932 570.697C308.359 607.844 331.684 642.844 366.032 648.872C400.38 654.9 432.742 629.673 438.316 592.527Z" fill="#DBD649"/>
<path d="M1102 651.171C1136.8 651.171 1165 620.664 1165 583.032C1165 545.4 1136.8 514.893 1102 514.893C1067.2 514.893 1038.99 545.4 1038.99 583.032C1038.99 620.664 1067.2 651.171 1102 651.171Z" fill="#DBD649"/>
<path d="M292.258 217.583C298.06 221.095 303 226.059 306.664 232.059L348.036 258.665L418.33 294.272C418.33 294.272 434.907 230.539 454.713 226.468C474.519 222.398 507.195 269.632 507.195 269.632C507.195 269.632 450.234 369.376 425.422 359.149C400.609 348.922 345.171 299.254 345.171 299.254L337.929 292.889L291.868 259.75C285.229 259.314 278.784 257.163 273.071 253.48C258.665 244.479 251.281 229.145 256.579 219.231C261.877 209.316 277.848 208.577 292.258 217.583Z" fill="#9F616A"/>
<path d="M429.272 245.246L465.219 199.479L486.937 202.863C513.575 207.013 528.384 238.437 515.836 264.186L503.324 289.862L429.272 245.246Z" fill="#E5E5E5"/>
<path d="M312.38 305.165L249.11 210.836C248.171 209.443 248.401 207.491 249.631 206.393L264.809 192.839C265.467 192.251 266.329 191.992 267.173 192.127C268.016 192.263 268.774 192.778 269.25 193.548L332.113 295.582C332.632 296.419 332.762 297.45 332.474 298.409C332.184 299.369 331.515 300.119 330.637 300.468L315.868 306.314C314.782 306.745 313.57 306.455 312.748 305.617C312.614 305.48 312.49 305.33 312.38 305.165Z" fill="#3F3D56"/>
<path d="M317.409 299.398L251.928 207.605C250.957 206.249 251.024 204.484 252.079 203.586L265.101 192.504C265.665 192.023 266.443 191.861 267.233 192.058C268.022 192.255 268.762 192.792 269.259 193.539L334.937 292.345C335.478 293.156 335.675 294.11 335.48 294.963C335.283 295.816 334.721 296.444 333.935 296.687L320.719 300.753C319.747 301.052 318.605 300.682 317.784 299.844C317.65 299.707 317.523 299.559 317.409 299.398Z" fill="#E5E5E5"/>
<path d="M291.282 873.364L262.811 939.808L216.357 917.12L252.321 866.881L291.282 873.364Z" fill="#9F616A"/>
<path d="M243.33 918.741L277.796 913.879C277.796 913.879 301.772 975.462 283.79 978.703C265.808 981.944 124.949 996.53 124.949 977.082C124.949 957.635 183.39 933.326 183.39 933.326L223.85 902.535L243.33 918.741Z" fill="#2F2E41"/>
<path d="M514.558 445.525C514.558 445.525 556.516 513.59 466.607 555.726L370.703 704.821L291.282 891.19L243.33 871.743L327.246 589.758L375.198 463.351L397.676 424.457L514.558 445.525Z" fill="#2F2E41"/>
<path d="M270.312 862.207L237.896 926.503L192.909 900.588L231.825 852.992L270.312 862.207Z" fill="#9F616A"/>
<path d="M219.727 904.107L254.412 901.685C254.412 901.685 274.625 964.827 256.486 966.794C238.347 968.76 96.9082 973.384 98.0805 953.978C99.2528 934.572 159.035 914.435 159.035 914.435L201.265 886.562L219.727 904.107Z" fill="#2F2E41"/>
<path d="M518.903 451.02C518.903 451.02 556.669 521.899 464.41 557.606L359.723 699.622L269.237 879.996L222.56 857.209L323.295 581.741L378.765 458.983L403.539 421.756L518.903 451.02Z" fill="#2F2E41"/>
<path d="M481.049 132.414L452.573 192.745L528.326 205.491L527.502 124.378L481.049 132.414Z" fill="#9F616A"/>
<path d="M496.862 157.166C525.985 157.166 549.594 131.633 549.594 100.137C549.594 68.6407 525.985 43.1078 496.862 43.1078C467.738 43.1078 444.129 68.6407 444.129 100.137C444.129 131.633 467.738 157.166 496.862 157.166Z" fill="#9F616A"/>
<path d="M531.042 464.972L539.738 312.622C547.262 276.155 544.757 238.105 532.531 203.159L529.543 166.781L460.612 171.643L431.392 222.692L403.67 343.427L397.676 424.457L531.042 464.972Z" fill="#E5E5E5"/>
<path d="M329.326 347.091C335.91 346.088 342.62 346.805 348.895 349.182L396.718 343.276L472.6 325.6C472.6 325.6 450.123 264.017 463.609 247.811C477.096 231.605 529.543 247.811 529.543 247.811C529.543 247.811 540.033 364.495 514.558 372.598C489.084 380.701 417.156 377.459 417.156 377.459L407.829 377.134L352.617 380.91C347.088 384.909 340.755 387.417 334.146 388.224C317.641 390.492 303.181 383.119 301.849 371.76C300.517 360.4 312.815 349.356 329.326 347.091Z" fill="#9F616A"/>
<path d="M453.869 279.413L456.866 219.451L476.047 207.927C499.573 193.792 528.949 209.109 533.373 237.82L537.785 266.448L453.869 279.413Z" fill="#E5E5E5"/>
<path d="M537.975 135.188C537.975 135.188 542.893 108.598 528.141 106.826C513.389 105.053 498.637 73.1452 498.637 73.1452C498.637 73.1452 447.735 63.5428 446.096 86.5873C444.456 109.632 445.085 104.51 445.085 104.51C445.085 104.51 432.983 98.9959 437.9 75.9514C439.305 69.3673 442.717 63.362 446.874 58.1422C460.236 41.3661 480.764 33.4408 501.102 35.9769C509.716 37.0509 535.361 45.8923 540.315 51.9195C553.428 67.8733 559.284 117.461 537.975 135.188Z" fill="#3F3D56"/>
<path d="M364.121 811.269C354.871 811.269 346.71 806.035 342.27 797.245C337.805 788.406 338.169 778.091 343.244 769.646L359.691 742.281C364.305 734.606 372.113 730.023 380.578 730.023H1095.92C1103.22 730.023 1110.12 733.461 1114.86 739.456L1132.9 762.286C1139.28 770.351 1140.7 781.352 1136.63 791C1132.55 800.647 1123.92 806.677 1114.11 806.735L364.27 811.269L364.121 811.269Z" fill="#3F3D56"/>
<path d="M1219.98 480.913C1233.14 490.221 1248.25 490.423 1253.73 481.365C1259.2 472.306 1252.97 457.421 1239.81 448.111C1234.6 444.314 1228.62 441.922 1222.38 441.136L1166.16 402.458L1149.94 431.377L1207.08 466.436C1210.25 472.307 1214.68 477.271 1219.98 480.913Z" fill="#FFB5B5"/>
<path d="M1060.09 385.6L1198.01 462.693L1210.01 427.008L1116.46 347.757L1110.23 232.137C1109.47 218.018 1102.92 205.22 1092.27 197.023C1081.61 188.829 1068.28 186.338 1055.7 190.192C1033.3 197.054 1019.95 222.434 1025.93 246.765L1060.09 385.6Z" fill="#E5E5E5"/>
<path d="M1093.4 178.707L1099.85 135.121L1056.33 115.943L1049.88 182.194L1093.4 178.707Z" fill="#FFB5B5"/>
<path d="M956.334 426.721C956.334 426.721 943.838 511.183 993.821 521.318C1043.8 531.454 1157.83 538.211 1157.83 538.211L1304.65 730.784L1334.33 695.31L1207.81 484.155L1106.28 414.896L956.334 426.721Z" fill="#2F2E41"/>
<path d="M968.263 413.048C968.263 413.048 939.122 492.566 985.881 514.188C1032.64 535.809 1142.59 569.158 1142.59 569.158L1247.29 791.593L1283.38 763.927L1202.23 528.117L1117.01 436.687L968.263 413.048Z" fill="#2F2E41"/>
<path d="M1101.6 171.646L1045.37 161.511L1007.25 184.452C985.073 219.346 983.239 330.018 978.004 371.982L946.962 450.37L1045.37 435.167L1125.03 426.721L1098.47 239.216L1101.6 171.646Z" fill="#E5E5E5"/>
<path d="M1082.4 149.132C1106.92 149.132 1126.79 127.64 1126.79 101.128C1126.79 74.6167 1106.92 53.1248 1082.4 53.1248C1057.89 53.1248 1038.02 74.6167 1038.02 101.128C1038.02 127.64 1057.89 149.132 1082.4 149.132Z" fill="#FFB5B5"/>
<path d="M1078.86 36.5909C1080.15 37.4017 1081.87 36.1749 1082.28 34.6295C1082.69 33.084 1082.21 31.4431 1081.73 29.9192C1080.94 27.3621 1080.14 24.805 1079.34 22.2479C1077.64 16.8072 1075.84 11.1764 1072.16 7.03529C1066.61 0.785001 1057.78 -0.805041 1049.84 0.346885C1039.64 1.82619 1029.58 7.79976 1024.83 17.6779C1020.09 27.5559 1022.11 41.3394 1030.68 47.5023C1018.46 62.6429 1014.21 79.5165 1014.88 99.5964C1015.55 119.676 1035.79 138.156 1048.98 152.302C1051.93 150.37 1054.61 141.317 1052.99 138.028C1051.36 134.739 1053.69 130.929 1051.68 127.9C1049.67 124.871 1047.99 129.694 1050.02 126.682C1051.3 124.781 1046.31 120.409 1048.21 119.271C1057.41 113.768 1060.47 101.361 1066.26 91.8592C1073.23 80.3985 1085.16 72.6372 1097.79 71.3496C1104.75 70.6403 1112.1 71.925 1117.8 76.2931C1123.5 80.6612 1127.19 88.4669 1125.87 95.8878C1129.3 92.1271 1131 86.6159 1130.36 81.3837C1129.72 76.1514 1126.74 71.313 1122.53 68.6503C1125.09 59.4864 1122.89 48.9453 1116.95 41.854C1111 34.7626 1086.87 35.9704 1078.19 37.8367" fill="#2F2E41"/>
<path d="M1077.51 71.6278C1066.01 72.9704 1057.71 83.7434 1050.7 93.6923C1046.66 99.4266 1042.42 105.759 1042.53 112.968C1042.63 120.257 1047.13 126.508 1049.29 133.416C1052.81 144.706 1049.38 158.139 1041 165.875C1049.28 167.574 1058.23 160.86 1059.66 151.879C1061.32 141.423 1053.99 131.331 1054.86 120.763C1055.63 111.452 1062.41 104.287 1068.18 97.3253C1073.95 90.3638 1079.36 81.1261 1076.71 72.2302" fill="#2F2E41"/>
<path d="M1184.71 489.942C1197.87 499.25 1212.97 499.452 1218.45 490.393C1223.93 481.335 1217.7 466.449 1204.53 457.14C1199.32 453.343 1193.34 450.951 1187.1 450.165L1130.88 411.487L1114.66 440.405L1171.81 475.465C1174.98 481.335 1179.4 486.3 1184.71 489.942Z" fill="#FFB5B5"/>
<path d="M1024.81 394.629L1162.73 471.722L1174.73 436.037L1081.18 356.786L1074.95 241.166C1074.19 227.047 1067.64 214.249 1056.99 206.052C1046.33 197.858 1033.01 195.367 1020.42 199.22C998.024 206.083 984.67 231.463 990.656 255.793L1024.81 394.629Z" fill="#E5E5E5"/>
<path d="M1252.26 761.751L1255.45 763.724C1255.45 763.724 1277.32 750.21 1288.25 763.724C1299.18 777.238 1306.99 811.022 1306.99 811.022C1306.99 811.022 1352.29 851.564 1325.74 851.564C1305.75 851.564 1258.32 827.634 1236.09 815.801C1229 812.024 1225.69 803.049 1228.45 795.034C1230.75 788.351 1233.73 781.34 1236.71 778.927C1239.83 776.393 1241.78 770.903 1242.95 766.046C1244.02 761.646 1248.61 759.495 1252.26 761.751Z" fill="#2F2E41"/>
<path d="M1313.17 697.56L1316.37 699.533C1316.37 699.533 1338.23 686.019 1349.17 699.533C1360.1 713.047 1367.91 746.831 1367.91 746.831C1367.91 746.831 1413.21 787.373 1386.65 787.373C1366.67 787.373 1319.24 763.443 1297.01 751.61C1289.91 747.833 1286.61 738.858 1289.37 730.843C1291.67 724.16 1294.65 717.149 1297.62 714.736C1300.75 712.202 1302.7 706.712 1303.87 701.855C1304.93 697.455 1309.52 695.304 1313.17 697.56Z" fill="#2F2E41"/>
<path d="M649.9 786V751H671.95V756.2H655.3V780.8H671.95V786H649.9ZM652.35 770.65V765.45H669.2V770.65H652.35ZM690.219 786.5C687.785 786.5 685.602 785.9 683.669 784.7C681.769 783.5 680.252 781.867 679.119 779.8C678.019 777.733 677.469 775.417 677.469 772.85C677.469 770.283 678.019 767.967 679.119 765.9C680.252 763.833 681.769 762.2 683.669 761C685.602 759.8 687.785 759.2 690.219 759.2C692.552 759.2 694.669 759.683 696.569 760.65C698.502 761.583 699.969 762.867 700.969 764.5L698.119 768C697.585 767.233 696.902 766.533 696.069 765.9C695.235 765.267 694.352 764.767 693.419 764.4C692.485 764.033 691.585 763.85 690.719 763.85C689.119 763.85 687.685 764.25 686.419 765.05C685.185 765.817 684.202 766.883 683.469 768.25C682.735 769.617 682.369 771.15 682.369 772.85C682.369 774.55 682.752 776.083 683.519 777.45C684.285 778.783 685.302 779.85 686.569 780.65C687.835 781.45 689.235 781.85 690.769 781.85C691.669 781.85 692.535 781.7 693.369 781.4C694.235 781.1 695.069 780.65 695.869 780.05C696.669 779.45 697.419 778.717 698.119 777.85L700.969 781.35C699.902 782.85 698.369 784.083 696.369 785.05C694.402 786.017 692.352 786.5 690.219 786.5ZM717.627 786.5C715.06 786.5 712.76 785.917 710.727 784.75C708.727 783.55 707.143 781.933 705.977 779.9C704.81 777.833 704.227 775.483 704.227 772.85C704.227 770.217 704.81 767.883 705.977 765.85C707.143 763.783 708.727 762.167 710.727 761C712.76 759.8 715.06 759.2 717.627 759.2C720.16 759.2 722.427 759.8 724.427 761C726.46 762.167 728.06 763.783 729.227 765.85C730.393 767.883 730.977 770.217 730.977 772.85C730.977 775.483 730.393 777.833 729.227 779.9C728.06 781.933 726.46 783.55 724.427 784.75C722.427 785.917 720.16 786.5 717.627 786.5ZM717.627 781.8C719.193 781.8 720.593 781.417 721.827 780.65C723.06 779.85 724.027 778.783 724.727 777.45C725.427 776.083 725.76 774.55 725.727 772.85C725.76 771.117 725.427 769.583 724.727 768.25C724.027 766.883 723.06 765.817 721.827 765.05C720.593 764.283 719.193 763.9 717.627 763.9C716.06 763.9 714.643 764.3 713.377 765.1C712.143 765.867 711.177 766.933 710.477 768.3C709.777 769.633 709.443 771.15 709.477 772.85C709.443 774.55 709.777 776.083 710.477 777.45C711.177 778.783 712.143 779.85 713.377 780.65C714.643 781.417 716.06 781.8 717.627 781.8ZM747.738 786.5C745.305 786.5 743.122 785.9 741.188 784.7C739.288 783.5 737.772 781.867 736.638 779.8C735.538 777.733 734.988 775.417 734.988 772.85C734.988 770.283 735.538 767.967 736.638 765.9C737.772 763.833 739.288 762.2 741.188 761C743.122 759.8 745.305 759.2 747.738 759.2C750.072 759.2 752.188 759.683 754.088 760.65C756.022 761.583 757.488 762.867 758.488 764.5L755.638 768C755.105 767.233 754.422 766.533 753.588 765.9C752.755 765.267 751.872 764.767 750.938 764.4C750.005 764.033 749.105 763.85 748.238 763.85C746.638 763.85 745.205 764.25 743.938 765.05C742.705 765.817 741.722 766.883 740.988 768.25C740.255 769.617 739.888 771.15 739.888 772.85C739.888 774.55 740.272 776.083 741.038 777.45C741.805 778.783 742.822 779.85 744.088 780.65C745.355 781.45 746.755 781.85 748.288 781.85C749.188 781.85 750.055 781.7 750.888 781.4C751.755 781.1 752.588 780.65 753.388 780.05C754.188 779.45 754.938 778.717 755.638 777.85L758.488 781.35C757.422 782.85 755.888 784.083 753.888 785.05C751.922 786.017 749.872 786.5 747.738 786.5ZM775.146 786.5C772.579 786.5 770.279 785.917 768.246 784.75C766.246 783.55 764.663 781.933 763.496 779.9C762.329 777.833 761.746 775.483 761.746 772.85C761.746 770.217 762.329 767.883 763.496 765.85C764.663 763.783 766.246 762.167 768.246 761C770.279 759.8 772.579 759.2 775.146 759.2C777.679 759.2 779.946 759.8 781.946 761C783.979 762.167 785.579 763.783 786.746 765.85C787.913 767.883 788.496 770.217 788.496 772.85C788.496 775.483 787.913 777.833 786.746 779.9C785.579 781.933 783.979 783.55 781.946 784.75C779.946 785.917 777.679 786.5 775.146 786.5ZM775.146 781.8C776.713 781.8 778.113 781.417 779.346 780.65C780.579 779.85 781.546 778.783 782.246 777.45C782.946 776.083 783.279 774.55 783.246 772.85C783.279 771.117 782.946 769.583 782.246 768.25C781.546 766.883 780.579 765.817 779.346 765.05C778.113 764.283 776.713 763.9 775.146 763.9C773.579 763.9 772.163 764.3 770.896 765.1C769.663 765.867 768.696 766.933 767.996 768.3C767.296 769.633 766.963 771.15 766.996 772.85C766.963 774.55 767.296 776.083 767.996 777.45C768.696 778.783 769.663 779.85 770.896 780.65C772.163 781.417 773.579 781.8 775.146 781.8Z" fill="#DBD649"/>
</g>
<defs>
<clipPath id="clip0_101_57">
<rect width="1395" height="987" fill="white"/>
</clipPath>
</defs>
</svg>
